<svg width="24" height="22" viewBox="0 0 24 22" fill="currentColor" xmlns="http://www.w3.org/2000/svg">
<path d="M11.6818 5.70738L4.00032 13.1651V21.2142C4.00032 21.4226 4.07055 21.6225 4.19556 21.7698C4.32058 21.9172 4.49013 22 4.66693 22L9.33574 21.9858C9.51196 21.9847 9.68066 21.9015 9.80495 21.7542C9.92925 21.607 9.99902 21.4077 9.99902 21.2V16.4994C9.99902 16.291 10.0693 16.0911 10.1943 15.9437C10.3193 15.7964 10.4888 15.7136 10.6656 15.7136H13.3321C13.5089 15.7136 13.6785 15.7964 13.8035 15.9437C13.9285 16.0911 13.9987 16.291 13.9987 16.4994V21.1965C13.9984 21.2999 14.0155 21.4024 14.0489 21.498C14.0822 21.5936 14.1313 21.6805 14.1932 21.7538C14.2551 21.827 14.3287 21.8851 14.4097 21.9247C14.4908 21.9644 14.5776 21.9848 14.6653 21.9848L19.3325 22C19.5093 22 19.6788 21.9172 19.8038 21.7698C19.9289 21.6225 19.9991 21.4226 19.9991 21.2142V13.1597L12.3193 5.70738C12.229 5.62159 12.1165 5.57481 12.0005 5.57481C11.8846 5.57481 11.7721 5.62159 11.6818 5.70738ZM23.8155 10.7763L20.3324 7.39194V0.589351C20.3324 0.433046 20.2797 0.283142 20.186 0.172617C20.0922 0.0620923 19.965 0 19.8324 0H17.4993C17.3667 0 17.2395 0.0620923 17.1458 0.172617C17.052 0.283142 16.9993 0.433046 16.9993 0.589351V4.15542L13.2692 0.537783C12.9112 0.190547 12.462 0.000694131 11.9985 0.000694131C11.5349 0.000694131 11.0857 0.190547 10.7277 0.537783L0.181444 10.7763C0.130818 10.8256 0.0889323 10.8862 0.0581813 10.9546C0.0274303 11.023 0.00841634 11.0979 0.00222573 11.175C-0.00396488 11.2521 0.00278923 11.3299 0.0221021 11.4039C0.0414151 11.4779 0.0729083 11.5466 0.114782 11.6063L1.1772 13.1288C1.21896 13.1886 1.27033 13.2382 1.32835 13.2746C1.38638 13.3111 1.44994 13.3336 1.51538 13.3411C1.58082 13.3485 1.64686 13.3407 1.70973 13.318C1.77259 13.2953 1.83104 13.2582 1.88173 13.2088L11.6818 3.69376C11.7721 3.60797 11.8846 3.56119 12.0005 3.56119C12.1165 3.56119 12.229 3.60797 12.3193 3.69376L22.1198 13.2088C22.1704 13.2582 22.2287 13.2953 22.2915 13.3181C22.3543 13.3409 22.4202 13.3488 22.4856 13.3415C22.551 13.3342 22.6145 13.3118 22.6726 13.2756C22.7306 13.2393 22.782 13.1899 22.8239 13.1303L23.8863 11.6078C23.9281 11.5478 23.9595 11.4786 23.9786 11.4043C23.9976 11.33 24.0041 11.2519 23.9975 11.1747C23.9909 11.0974 23.9714 11.0224 23.9402 10.9541C23.909 10.8857 23.8666 10.8253 23.8155 10.7763Z" fill="currentColor" />
</svg>
