<svg width="18" height="22" viewBox="0 0 18 22" fill="currentColor" xmlns="http://www.w3.org/2000/svg">
<path d="M9 22C10.4191 22 11.5702 20.7689 11.5702 19.25H6.42978C6.42978 20.7689 7.5809 22 9 22ZM17.654 15.5671C16.8778 14.6751 15.4253 13.3332 15.4253 8.9375C15.4253 5.59883 13.2364 2.92617 10.2849 2.27047V1.375C10.2849 0.615742 9.70955 0 9 0C8.29045 0 7.71509 0.615742 7.71509 1.375V2.27047C4.76358 2.92617 2.57466 5.59883 2.57466 8.9375C2.57466 13.3332 1.12221 14.6751 0.345964 15.5671C0.104894 15.8443 -0.00198114 16.1756 2.77789e-05 16.5C0.00444741 17.2047 0.521544 17.875 1.28976 17.875H16.7102C17.4785 17.875 17.996 17.2047 18 16.5C18.002 16.1756 17.8951 15.8439 17.654 15.5671Z" fill="currentColor"/>
</svg>
