<svg id="Capa_1" enable-background="new 0 0 512.006 512.006" height="24" viewBox="0 0 512.006 512.006" width="24" xmlns="http://www.w3.org/2000/svg"><g><path d="m130.019 423c-12.703 0-23-10.297-23-23v-23h46v23c0 12.703-10.298 23-23 23z"  fill="#F1908C"/><path d="m53.607 377h152.824c24.073 0 43.588-19.515 43.588-43.588v-232.824c0-24.073-19.515-43.588-43.588-43.588h-152.824c-24.073 0-43.588 19.515-43.588 43.588v232.824c0 24.073 19.515 43.588 43.588 43.588z" fill="#fff"/><g><path d="m485.025 27.872c-22.658-22.658-59.394-22.658-82.052 0-22.658-22.658-59.394-22.658-82.052 0-22.658 22.658-22.658 59.394 0 82.052l71.856 71.856c5.631 5.631 14.761 5.631 20.392 0l71.856-71.856c22.658-22.658 22.658-59.394 0-82.052z"  fill="#F1908C"/></g><path d="m214.019 333.412v-161.75c0-6.537-6.943-10.672-12.732-7.635-27.066 14.198-60.803 13.724-88.208-4.18-18.299-11.955-39.421-16.127-59.498-13.362-4.318.595-7.562 4.235-7.562 8.593v178.335c0 4.191 3.397 7.588 7.588 7.588h152.824c4.191-.001 7.588-3.398 7.588-7.589z"  fill="#F1908C"/><path d="m492.097 20.801c-12.848-12.847-29.929-19.923-48.098-19.923-15.012 0-29.28 4.83-41.032 13.755-26.636-20.162-64.843-18.104-89.118 6.168-26.521 26.521-26.521 69.674 0 96.194l71.856 71.856c2.159 2.159 4.634 3.802 7.267 4.982v268.693c0 16.255-13.225 29.479-29.48 29.479s-29.48-13.225-29.48-29.479v-2.859c0-33.793-27.493-61.285-61.286-61.285s-61.285 27.492-61.285 61.285v2.859c0 16.255-13.225 29.479-29.48 29.479h-12.464c-16.255 0-29.48-13.225-29.48-29.479v-31.08c13.322-4.246 23-16.736 23-31.447v-13h43.412c29.548 0 53.588-24.039 53.588-53.588v-232.823c0-29.549-24.04-53.588-53.588-53.588h-21.145c-4.319-26.614-27.453-47-55.267-47s-50.946 20.386-55.265 47h-21.145c-29.549 0-53.588 24.039-53.588 53.588v232.824c0 29.549 24.04 53.588 53.588 53.588h43.412v13c0 14.711 9.678 27.201 23 31.447v31.08c0 27.283 22.197 49.479 49.48 49.479h12.464c27.283 0 49.48-22.196 49.48-49.479v-2.859c0-22.765 18.521-41.285 41.285-41.285 22.765 0 41.286 18.521 41.286 41.285v2.859c0 27.283 22.197 49.479 49.48 49.479s49.48-22.196 49.48-49.479v-268.694c2.633-1.18 5.108-2.823 7.267-4.981l71.856-71.856c26.52-26.521 26.52-69.675 0-96.195zm-362.078-.801c16.744 0 30.854 11.49 34.861 27h-69.722c4.007-15.51 18.117-27 34.861-27zm-110 313.412v-232.824c0-18.521 15.067-33.588 33.588-33.588h152.824c18.521 0 33.588 15.067 33.588 33.588v232.824c0 18.521-15.067 33.588-33.588 33.588h-152.824c-18.521 0-33.588-15.067-33.588-33.588zm97 53.588h26v13c0 7.168-5.832 13-13 13s-13-5.832-13-13zm360.935-284.147-71.856 71.856c-1.723 1.723-4.527 1.723-6.25 0l-71.856-71.856c-18.723-18.723-18.723-49.187 0-67.909 9.361-9.361 21.658-14.042 33.955-14.042 12.296 0 24.593 4.681 33.955 14.042 1.875 1.875 4.419 2.929 7.071 2.929s5.196-1.054 7.071-2.929c9.069-9.07 21.128-14.065 33.955-14.065 12.826 0 24.885 4.995 33.955 14.065 18.723 18.722 18.723 49.186 0 67.909z" fill="#fff"/></g></svg>